<svg xmlns="http://www.w3.org/2000/svg" width="90" height="90" viewBox="0 0 90 90">
  <g id="Group_910" data-name="Group 910" transform="translate(-2102 11950)">
    <circle id="Ellipse_113" data-name="Ellipse 113" cx="45" cy="45" r="45" transform="translate(2102 -11950)" fill="#fff" opacity="0"/>
    <g id="noun-taxi-7841717" transform="translate(2102.605 -11951.959)">
      <path id="Path_2857" data-name="Path 2857" d="M10.9,64.738H1.387a.848.848,0,0,0-.849.849c.142,1.06-.513,3.675.849,3.626H9.863a8.449,8.449,0,0,1,1.032-4.475Z" transform="translate(0 -4.71)" fill="#edbc10" fill-rule="evenodd"/>
      <path id="Path_2858" data-name="Path 2858" d="M2.55,58.9h9.968a8.563,8.563,0,0,1,12.092,0H36.894l0-12.861H19.083a2.889,2.889,0,0,1-1.261-.287,2.661,2.661,0,0,1-1.361-3.294c1.784-4.873,7.915-10.45,13.321-10.481,4.676-.007,14.78.007,19.525,0-4.925-3.408-12.552-1.905-18.278-2.22a19.789,19.789,0,0,0-9.7,1.739c-4.669,2.082-6.692,6.678-10.4,10.218a37.661,37.661,0,0,1-6.8,5.23,3.183,3.183,0,0,0-1.444,1.78c5.84-.343,7.412.194,4.576,6.117-.752,2.04-1.908,1.787-4.714,1.721Zm16.477-4.534V52.6c-.935-.118-3.54.364-4.212-.523-.772-.61-.471-2.272-.526-3.117a1.765,1.765,0,0,1,.6-1.334c.655-.776,3.346-.343,4.219-.45a1.78,1.78,0,0,1,1.261.523c.755.6.471,2.2.523,3.034h2.871c-.052-1.417-.2-3.523,1.78-3.554.887.111,3.557-.329,4.219.45.866.6.551,2.3.6,3.19a1.778,1.778,0,0,1-.523,1.257c-.665.887-3.287.416-4.215.526.042,1.444.215,3.495-1.784,3.554-1.5-.107-4.832.634-4.818-1.787Z" transform="translate(-0.232 -0.74)" fill="#edbc10" fill-rule="evenodd"/>
      <path id="Path_2859" data-name="Path 2859" d="M2.551,57.355l2.729-.007,1.545-4.025-.149-.038H2.551Z" transform="translate(-0.232 -3.412)" fill="#edbc10" fill-rule="evenodd"/>
      <path id="Path_2860" data-name="Path 2860" d="M19.776,61.879c-8.687.145-8.7,13.072,0,13.228,8.7-.152,8.684-13.086,0-13.228Zm0,2.48c5.407.031,5.4,8.24,0,8.268C14.341,72.533,14.345,64.449,19.776,64.359Z" transform="translate(-1.445 -4.386)" fill="#edbc10" fill-rule="evenodd"/>
      <path id="Path_2861" data-name="Path 2861" d="M20.325,66.781a2.267,2.267,0,0,0,0,4.534A2.267,2.267,0,0,0,20.325,66.781Z" transform="translate(-1.994 -4.941)" fill="#edbc10" fill-rule="evenodd"/>
      <path id="Path_2862" data-name="Path 2862" d="M29,64.738a8.477,8.477,0,0,1,1.036,4.475h40.5a8.451,8.451,0,0,1,1.036-4.475H29Z" transform="translate(-3.228 -4.71)" fill="#edbc10" fill-rule="evenodd"/>
      <path id="Path_2863" data-name="Path 2863" d="M17.9,51.512h2.871V53.2H17.9Z" transform="translate(-1.97 -3.212)" fill="#edbc10" fill-rule="evenodd"/>
      <path id="Path_2864" data-name="Path 2864" d="M21.087,44.7H38.894V34.365c-4.527.062-9.854-.811-13.671,2.785-1.521,1.1-7.08,6.993-4.136,7.547Z" transform="translate(-2.236 -1.263)" fill="#edbc10" fill-rule="evenodd"/>
      <path id="Path_2865" data-name="Path 2865" d="M23.238,55.523h2.871V57.21H23.238Z" transform="translate(-2.576 -3.666)" fill="#edbc10" fill-rule="evenodd"/>
      <path id="Path_2866" data-name="Path 2866" d="M28.582,51.512h2.871V53.2H28.582Z" transform="translate(-3.181 -3.212)" fill="#edbc10" fill-rule="evenodd"/>
      <path id="Path_2867" data-name="Path 2867" d="M43.383,47.9V60.759h31.2a8.563,8.563,0,0,1,12.092,0h3.183V57.6c-5.909.641-9.671-3.952-7.478-9.525-3.557-.2-9.082-.52-13.048-1.985.045.707.045,1.818-.932,1.8ZM46.5,51.771a.934.934,0,0,1,0-1.867h2.975a.934.934,0,0,1,0,1.867Zm9.654,4.454c.055-.852-.242-2.5.523-3.114.669-.883,3.284-.416,4.215-.526.055-.842-.236-2.428.523-3.031.658-.883,3.374-.409,4.3-.523,2,.055,1.825,2.113,1.784,3.554.935.118,3.543-.36,4.212.523.772.613.471,2.269.526,3.117a1.765,1.765,0,0,1-.6,1.334c-.651.776-3.346.343-4.219.45a1.78,1.78,0,0,1-1.261-.523c-.755-.6-.475-2.2-.523-3.034H62.766c.052,1.42.2,3.523-1.78,3.554-1.507-.1-4.842.641-4.828-1.78Z" transform="translate(-4.858 -2.598)" fill="#edbc10" fill-rule="evenodd"/>
      <path id="Path_2868" data-name="Path 2868" d="M43.383,44.7H61.491a21.432,21.432,0,0,1-.118-3.45,2.64,2.64,0,0,1,.769-1.864l-5.9-5.019H43.383Z" transform="translate(-4.858 -1.27)" fill="#edbc10" fill-rule="evenodd"/>
      <path id="Path_2869" data-name="Path 2869" d="M59.9,55.52h2.871v1.687H59.9Z" transform="translate(-6.728 -3.666)" fill="#edbc10" fill-rule="evenodd"/>
      <path id="Path_2870" data-name="Path 2870" d="M65.238,51.512h2.871V53.2H65.238Z" transform="translate(-7.334 -3.212)" fill="#edbc10" fill-rule="evenodd"/>
      <path id="Path_2871" data-name="Path 2871" d="M66.552,45.48H70c-.083-.426.222-3.755-.229-4-.27-.443-2.8-.149-3.221-.229-1.257-.055-.641,2.49-.779,3.45a.784.784,0,0,0,.779.776Z" transform="translate(-7.391 -2.047)" fill="#edbc10" fill-rule="evenodd"/>
      <path id="Path_2872" data-name="Path 2872" d="M70.582,55.52h2.871v1.687H70.582Z" transform="translate(-7.939 -3.666)" fill="#edbc10" fill-rule="evenodd"/>
      <path id="Path_2873" data-name="Path 2873" d="M79.557,64.139C74.112,70.53,83.2,79.033,89.22,73.166,95.437,66.685,85.6,57.489,79.557,64.139Zm2.064,1.424c3.9-3.775,9.625,1.94,5.847,5.843C83.561,75.2,77.845,69.46,81.621,65.563Z" transform="translate(-8.766 -4.381)" fill="#edbc10" fill-rule="evenodd"/>
      <path id="Path_2874" data-name="Path 2874" d="M83.5,67.44c-2.092,2.1,1.1,5.293,3.207,3.207A2.268,2.268,0,0,0,83.5,67.44Z" transform="translate(-9.325 -4.939)" fill="#edbc10" fill-rule="evenodd"/>
      <path id="Path_2875" data-name="Path 2875" d="M93.781,64.736a8.477,8.477,0,0,1,1.036,4.475c.475-.087,3.471.232,3.769-.246a.845.845,0,0,0,.249-.6c-.076-.443.2-3.038-.211-3.339-.326-.478-1.642-.229-2.116-.287Z" transform="translate(-10.567 -4.708)" fill="#edbc10" fill-rule="evenodd"/>
      <path id="Path_2876" data-name="Path 2876" d="M40.644,27.147c-.1-1.2.554-3.976-1.4-3.966-.72.08-2.6-.263-3.117.409-.71.526-.312,2.816-.409,3.557Z" transform="translate(-3.987 0)" fill="#edbc10" fill-rule="evenodd"/>
      <path id="Path_2877" data-name="Path 2877" d="M89.39,48.68c-1.884,4.617.693,7.859,5.615,7.354C94.977,51.874,93.252,49.6,89.39,48.68Z" transform="translate(-10 -2.891)" fill="#edbc10" fill-rule="evenodd"/>
    </g>
  </g>
</svg>
