<svg xmlns="http://www.w3.org/2000/svg" width="511" height="511" viewBox="0 0 511 511">
  <path id="Subtraction_2" data-name="Subtraction 2" d="M256,708.5a257.384,257.384,0,0,1-51.492-5.191,254.1,254.1,0,0,1-91.36-38.444A256.248,256.248,0,0,1,20.579,552.452a254.218,254.218,0,0,1-14.888-47.96,257.993,257.993,0,0,1,0-102.984,254.1,254.1,0,0,1,38.444-91.36,256.246,256.246,0,0,1,112.412-92.569,254.216,254.216,0,0,1,47.96-14.888,257.99,257.99,0,0,1,102.984,0,254.1,254.1,0,0,1,91.36,38.445,256.248,256.248,0,0,1,92.569,112.413,254.225,254.225,0,0,1,14.888,47.96,257.992,257.992,0,0,1,0,102.984,254.1,254.1,0,0,1-38.444,91.36,256.244,256.244,0,0,1-112.413,92.569,254.218,254.218,0,0,1-47.96,14.888A257.387,257.387,0,0,1,256,708.5ZM172.354,473.1h54.419V624.686h74.22c45.748,0,82.777-13.241,110.059-39.355s41.114-61.171,41.114-104.2c0-45.3-12.452-79.746-37.012-102.393s-61.917-34.131-111.037-34.131H226.772v93.326H172.354V322.408h130.43v-35.4H133.224V621h39.129V473.1ZM301.382,595h-41.8V473.1H293V437.934H259.585V374.295h43.752a202.747,202.747,0,0,1,26.825,1.682,140.7,140.7,0,0,1,23.248,5.045,102.444,102.444,0,0,1,19.671,8.408A83.062,83.062,0,0,1,389.175,401.2a79.4,79.4,0,0,1,12.518,15.134,90.8,90.8,0,0,1,8.941,18.5A119.247,119.247,0,0,1,416,456.689a168.9,168.9,0,0,1,1.788,25.223,162.433,162.433,0,0,1-1.916,25.513,120.628,120.628,0,0,1-5.749,22.437,97.951,97.951,0,0,1-9.582,19.36,91.3,91.3,0,0,1-13.416,16.284,94.967,94.967,0,0,1-16.858,12.9,104.774,104.774,0,0,1-19.91,9.217,130.574,130.574,0,0,1-22.962,5.531A175.627,175.627,0,0,1,301.382,595Z" transform="translate(-0.5 -197.5)"/>
</svg>
