<svg xmlns="http://www.w3.org/2000/svg" width="31.919" height="31.919" viewBox="0 0 31.919 31.919">
  <g id="Group_870" data-name="Group 870" transform="translate(-12354 -3968)">
    <rect id="Rectangle_713" data-name="Rectangle 713" width="31.919" height="31.919" transform="translate(12354 3968)" fill="#fff" opacity="0"/>
    <g id="github" transform="translate(13517.694 2309.769)">
      <path id="Path_720" data-name="Path 720" d="M-1147.735,1662.92a11.556,11.556,0,0,0-11.555,11.555,11.558,11.558,0,0,0,7.9,10.965c.577.107.79-.251.79-.556,0-.275-.011-1.186-.016-2.151-3.215.7-3.893-1.363-3.893-1.363a3.059,3.059,0,0,0-1.283-1.691c-1.049-.717.079-.7.079-.7a2.429,2.429,0,0,1,1.771,1.191,2.46,2.46,0,0,0,3.363.961,2.461,2.461,0,0,1,.734-1.545c-2.567-.292-5.265-1.283-5.265-5.711a4.471,4.471,0,0,1,1.191-3.1,4.152,4.152,0,0,1,.112-3.058s.97-.31,3.178,1.185a11.083,11.083,0,0,1,2.892-.389,11.112,11.112,0,0,1,2.895.389c2.206-1.495,3.174-1.185,3.174-1.185a4.148,4.148,0,0,1,.114,3.058,4.463,4.463,0,0,1,1.189,3.1c0,4.438-2.7,5.415-5.276,5.7a2.762,2.762,0,0,1,.784,2.14c0,1.546-.013,2.791-.013,3.171,0,.308.208.668.794.554a11.557,11.557,0,0,0,7.9-10.963A11.554,11.554,0,0,0-1147.735,1662.92Z" transform="translate(0 0)" fill-rule="evenodd"/>
      <path id="Path_721" data-name="Path 721" d="M-1150.31,1698.058c-.025.057-.116.075-.2.035s-.131-.116-.1-.174.115-.075.2-.036.131.118.1.174Zm-.141-.108" transform="translate(-4.603 -18.549)"/>
      <path id="Path_722" data-name="Path 722" d="M-1149.3,1699.027c-.055.051-.163.027-.236-.053s-.09-.189-.034-.24.161-.027.237.053.089.188.033.24Zm-.113-.117" transform="translate(-5.14 -18.997)"/>
      <path id="Path_723" data-name="Path 723" d="M-1148.342,1700.363c-.071.049-.187,0-.258-.1s-.071-.226,0-.275.186,0,.258.1a.208.208,0,0,1,0,.278Zm0,0" transform="translate(-5.647 -19.666)"/>
      <path id="Path_724" data-name="Path 724" d="M-1147.109,1701.748c-.063.07-.2.051-.3-.044a.222.222,0,0,1-.066-.3c.064-.07.2-.05.3.044s.129.225.063.3Zm0,0" transform="translate(-6.256 -20.409)"/>
      <path id="Path_725" data-name="Path 725" d="M-1145.377,1702.694c-.028.09-.158.131-.289.093s-.216-.146-.19-.237.158-.134.29-.093.217.143.189.237Zm0,0" transform="translate(-7.129 -20.98)"/>
      <path id="Path_726" data-name="Path 726" d="M-1143.372,1702.929c0,.1-.108.174-.245.176s-.25-.074-.252-.168.109-.174.247-.177.25.075.25.169Zm0,0" transform="translate(-8.186 -21.149)"/>
      <path id="Path_727" data-name="Path 727" d="M-1141.5,1702.658c.016.093-.079.188-.216.214s-.258-.033-.276-.125.081-.191.215-.215.262.028.276.127Zm0,0" transform="translate(-9.183 -21.023)"/>
    </g>
  </g>
</svg>
