<svg xmlns="http://www.w3.org/2000/svg" width="31.919" height="31.919" viewBox="0 0 31.919 31.919">
  <g id="Group_871" data-name="Group 871" transform="translate(-12389 -3968)">
    <rect id="Rectangle_714" data-name="Rectangle 714" width="31.919" height="31.919" transform="translate(12389 3968)" fill="#fff" opacity="0"/>
    <g id="linkedin" transform="translate(12389.938 3967.691)">
      <path id="Path_717" data-name="Path 717" d="M30.044,27.06v-.036l-.023.036Z" transform="translate(-14.153 -11.928)"/>
      <path id="Path_718" data-name="Path 718" d="M24.845,4.667H5.2a1.683,1.683,0,0,0-1.7,1.662V26.207a1.683,1.683,0,0,0,1.7,1.662H24.845a1.684,1.684,0,0,0,1.7-1.662V6.329A1.684,1.684,0,0,0,24.845,4.667ZM10.482,24.09H7V13.613h3.482ZM8.741,12.182H8.718a1.815,1.815,0,1,1,.046-3.62,1.816,1.816,0,1,1-.023,3.62ZM23.04,24.09H19.557V18.484c0-1.408-.5-2.369-1.764-2.369a1.907,1.907,0,0,0-1.787,1.274,2.384,2.384,0,0,0-.114.849v5.851H12.41s.046-9.495,0-10.477h3.482V15.1a3.458,3.458,0,0,1,3.139-1.73c2.291,0,4.009,1.5,4.009,4.716V24.09Z"/>
    </g>
  </g>
</svg>
