<svg xmlns="http://www.w3.org/2000/svg" width="31.919" height="31.919" viewBox="0 0 31.919 31.919">
  <g id="Group_869" data-name="Group 869" transform="translate(-12317 -3968)">
    <rect id="Rectangle_715" data-name="Rectangle 715" width="31.919" height="31.919" transform="translate(12317 3968)" fill="#fff" opacity="0"/>
    <g id="Group_872" data-name="Group 872" transform="translate(-5 -39)">
      <g id="Group_872-2" data-name="Group 872" transform="translate(24 69)">
        <path id="Subtraction_1" data-name="Subtraction 1" d="M-12.5-46a11.425,11.425,0,0,1-8.132-3.368A11.425,11.425,0,0,1-24-57.5a11.425,11.425,0,0,1,3.368-8.132A11.425,11.425,0,0,1-12.5-69a11.425,11.425,0,0,1,8.132,3.368A11.425,11.425,0,0,1-1-57.5a11.425,11.425,0,0,1-3.368,8.132A11.425,11.425,0,0,1-12.5-46Zm-6.052-17.552a1.511,1.511,0,0,0-1.5,1.513l-.008,9.077a1.515,1.515,0,0,0,1.513,1.514h12.1a1.515,1.515,0,0,0,1.513-1.514v-9.077a1.515,1.515,0,0,0-1.513-1.513Zm6.052,6.809h0l-6.052-3.782v-1.513l6.052,3.783,6.052-3.783v1.513L-12.5-56.744Z" transform="translate(12326 4011)"/>
      </g>
    </g>
  </g>
</svg>
